#!OML:ASF H:\Martial Arts Walks\Project 1\Capture day 1\Session 1\male.ASF
:FULLY-SPECIFIED
:DEGREES
3252
root -4.80376 14.1343 -30.2248 -356.156 15.1167 -355.676
lowerback 26.3634 2.44365 0.973765
upperback 1.74119 3.86404 2.62563
thorax -12.9061 1.8116 1.01509
lowerneck -3.08856 7.74413 3.14871
upperneck 6.07583 10.4633 -4.1623
head 2.91131 5.15449 -1.49034
rclavicle -1.55052e-014 1.11319e-014
rhumerus -24.0561 30.1886 -75.4923
rradius 94.4024
rwrist -12.6535
rhand -9.04462 -33.9723
rfingers 7.12502
rthumb 16.9035 1016.74
lclavicle -1.55052e-014 1.11319e-014
lhumerus -71.4413 239.915 -167.238
lradius 120.392
lwrist 23.026
lhand -27.8527 412.134
lfingers 7.12502
lthumb -1.24368 442.11
rfemur -49.6156 -4.67791 -5.59002
rtibia 72.855
rfoot -29.9503 -15.1994
rtoes -48.2551
lfemur -37.7195 12.3057 -4.3228
ltibia 69.0548
lfoot -25.9964 9.17654
ltoes -26.9834
3253
root -4.87427 14.1523 -30.1862 -356.588 18.4262 -355.691
lowerback 26.3331 2.51198 1.06085
upperback 1.80521 3.98242 2.61828
thorax -12.8108 1.86447 0.914345
lowerneck -2.92868 7.92456 3.38173
upperneck 6.28504 10.7115 -4.24785
head 2.98515 5.28135 -1.54811
rclavicle 3.45885e-014 0
rhumerus -24.4591 30.8224 -75.5243
rradius 96.3973
rwrist -15.9114
rhand -7.70262 -32.0751
rfingers 7.12502
rthumb 18.195 1018.76
lclavicle 3.45885e-014 0
lhumerus -71.8375 240.416 -166.811
lradius 121.115
lwrist 24.5486
lhand -27.7226 411.478
lfingers 7.12502
lthumb -1.11796 441.455
rfemur -47.1569 -4.36821 -5.93453
rtibia 72.9399
rfoot -28.8615 -13.0917
rtoes -46.6721
lfemur -38.4055 11.545 -4.20972
ltibia 68.4448
lfoot -26.1563 6.6372
ltoes -26.4584
3254
root -4.9407 14.1683 -30.1374 -356.773 21.934 -355.802
lowerback 25.9716 2.51307 1.35131
upperback 1.75334 4.06399 2.58485
thorax -12.6538 1.8899 0.691767
lowerneck -2.66685 8.01023 3.46774
upperneck 6.42784 10.8221 -4.0774
head 2.98367 5.346 -1.51064
rclavicle -4.29375e-014 -1.59028e-014
rhumerus -25.684 31.0917 -75.7832
rradius 98.7472
rwrist -19.503
rhand -5.57371 -30.8119
rfingers 7.12502
rthumb 20.2421 1020.22
lclavicle -4.29375e-014 -1.59028e-014
lhumerus -72.2845 241.212 -166.711
lradius 121.706
lwrist 25.3775
lhand -28.8216 412.475
lfingers 7.12502
lthumb -2.17946 442.443
rfemur -44.8219 -4.53476 -6.0613
rtibia 73.0098
rfoot -27.9019 -12.3295
rtoes -44.8716
lfemur -39.5005 10.912 -4.11945
ltibia 67.8578
lfoot -26.237 3.86162
ltoes -25.7684
3255
root -5.00761 14.1865 -30.0778 -357.073 25.3526 -356.02
lowerback 25.6287 2.48222 1.4878
upperback 1.80459 4.07645 2.71012
thorax -12.4095 1.90067 0.763705
lowerneck -2.74878 8.00563 3.31955
upperneck 6.64025 10.8259 -3.99912
head 3.05585 5.34449 -1.45317
rclavicle -4.09496e-014 -6.36111e-015
rhumerus -26.7677 31.8416 -75.9506
rradius 100.855
rwrist -22.5222
rhand -5.03806 -29.2521
rfingers 7.12502
rthumb 20.7568 1021.84
lclavicle -4.09496e-014 -6.36111e-015
lhumerus -74.2608 241.732 -165.457
lradius 122.257
lwrist 27.3299
lhand -29.5129 412.095
lfingers 7.12502
lthumb -2.8471 442.056
rfemur -42.4535 -4.80245 -5.93095
rtibia 73.011
rfoot -27.1074 -12.3723
rtoes -43.0533
lfemur -40.4376 10.506 -3.92449
ltibia 67.2461
lfoot -26.2217 1.18991
ltoes -25.4798
3256
root -5.06674 14.2051 -30.013 -357.215 28.6344 -356.131
lowerback 25.3543 2.46196 1.76244
upperback 1.67668 4.117 2.61006
thorax -12.3813 1.90362 0.487035
lowerneck -2.74042 7.88901 3.43244
upperneck 6.84875 10.665 -3.88871
head 3.11873 5.26983 -1.4406
rclavicle 4.69132e-014 -2.70347e-014
rhumerus -27.8464 32.2219 -76.2011
rradius 102.679
rwrist -26.8313
rhand -2.94999 -28.3917
rfingers 7.12502
rthumb 22.762 1022.93
lclavicle 4.69132e-014 -2.70347e-014
lhumerus -76.398 242.419 -164.475
lradius 122.595
lwrist 28.5421
lhand -29.9107 411.274
lfingers 7.12502
lthumb -3.23126 441.229
rfemur -40.2196 -5.301 -5.85556
rtibia 72.9848
rfoot -26.3138 -12.2605
rtoes -40.9038
lfemur -41.4188 10.3096 -3.94248
ltibia 66.5949
lfoot -25.8691 -0.260236
ltoes -27.2792
3257
root -5.12344 14.2268 -29.943 -357.766 31.7673 -356.686
lowerback 25.086 2.49008 2.11624
upperback 1.70818 4.27251 2.77655
thorax -12.1887 1.96874 0.42895
lowerneck -2.60595 7.74595 3.59858
upperneck 6.75613 10.4865 -4.13727
head 3.08307 5.18118 -1.56448
rclavicle -4.85035e-014 4.77083e-015
rhumerus -29.6313 32.553 -76.5945
rradius 104.907
rwrist -30.6725
rhand -1.60523 -27.5568
rfingers 7.12502
rthumb 24.052 1023.93
lclavicle -4.85035e-014 4.77083e-015
lhumerus -79.3111 242.888 -162.845
lradius 122.657
lwrist 28.9647
lhand -29.8858 409.985
lfingers 7.12502
lthumb -3.20714 439.94
rfemur -37.8551 -5.67328 -5.30821
rtibia 72.8587
rfoot -26.1879 -12.0969
rtoes -38.8438
lfemur -42.113 10.1811 -3.46613
ltibia 65.9188
lfoot -25.0778 -1.11737
ltoes -28.4423
3258
root -5.17487 14.2476 -29.8668 -358.4 34.6942 -357.341
lowerback 24.9279 2.50898 2.57885
upperback 1.63028 4.43888 2.84493
thorax -12.1642 2.02529 0.189607
lowerneck -2.59959 7.64518 3.7084
upperneck 7.00805 10.359 -4.1441
head 3.17046 5.11977 -1.58738
rclavicle 3.97569e-015 -1.43125e-014
rhumerus -31.8394 32.9293 -77.4838
rradius 107.004
rwrist -35.0063
rhand -1.93507 -26.5266
rfingers 7.12502
rthumb 23.7357 1024.92
lclavicle 3.97569e-015 -1.43125e-014
lhumerus -82.5721 243.384 -161.298
lradius 122.533
lwrist 28.2089
lhand -29.4278 407.936
lfingers 7.12502
lthumb -2.7649 437.898
rfemur -35.5917 -5.97912 -4.67377
rtibia 72.6509
rfoot -26.1591 -11.9965
rtoes -36.5133
lfemur -42.6474 10.1723 -2.88171
ltibia 65.2128
lfoot -23.8099 -1.16419
ltoes -28.0669
3259
root -5.20817 14.2673 -29.7932 -359.037 37.5202 -358.149
lowerback 24.3409 2.45891 2.89343
upperback 1.7742 4.48293 3.2111
thorax -11.6884 2.05808 0.432858
lowerneck -2.84699 7.63928 3.51653
upperneck 7.0937 10.3741 -4.30721
head 3.24573 5.1141 -1.59606
rclavicle 1.90833e-014 -4.92986e-014
rhumerus -33.6402 33.46 -77.7563
rradius 108.968
rwrist -37.9397
rhand 0.373146 -26.2834
rfingers 7.12502
rthumb 25.9477 1025.47
lclavicle 1.90833e-014 -4.92986e-014
lhumerus -87.275 243.468 -158.317
lradius 122.139
lwrist 26.4661
lhand -28.9989 406.401
lfingers 7.12502
lthumb -2.35065 436.367
rfemur -33.4781 -6.31943 -4.06039
rtibia 72.3271
rfoot -26.2368 -11.3618
rtoes -33.9491
lfemur -43.1981 10.0866 -2.22275
ltibia 64.5001
lfoot -22.0125 0.116916
ltoes -27.3299
